<svg version="1.1" id="merit_i4" xmlns="http://www.w3.org/2000/svg" xmlns:xlink="http://www.w3.org/1999/xlink" x="0px" y="0px" width="50.629px" height="44.5px" viewBox="0 0 50.629 44.5" enable-background="new 0 0 50.629 44.5" xml:space="preserve">
								<g>
									<g class="" style="stroke-dashoffset: 0px;">
										
											<polyline fill="none" stroke="#333333" stroke-width="1.4" stroke-linecap="round" stroke-linejoin="round" stroke-miterlimit="10" points="
											42.096,43.054 45.354,25.943 25.314,16.45 5.274,25.943 8.536,43.065 		" class="" style="stroke-dashoffset: 0px;"></polyline>
									</g>
									
										<line fill="none" stroke="#333333" stroke-width="1.4" stroke-linecap="round" stroke-linejoin="round" stroke-miterlimit="10" x1="25.314" y1="16.45" x2="25.314" y2="39.655" class="" style="stroke-dashoffset: 0px;"></line>
									<polyline fill="none" stroke="#333333" stroke-width="1.4" stroke-linejoin="round" stroke-miterlimit="10" points="12.658,22.446 
										12.658,7.316 37.971,7.316 37.971,22.446 	" class="" style="stroke-dashoffset: 0px;"></polyline>
									<polyline fill="none" stroke="#333333" stroke-width="1.4" stroke-linejoin="round" stroke-miterlimit="10" points="23.205,7.316 
										23.205,0.625 27.424,0.625 27.424,7.316 	" class="" style="stroke-dashoffset: 0px;"></polyline>
									<path fill="none" stroke="#333333" stroke-width="1.4" stroke-linejoin="round" stroke-miterlimit="10" d="M50.629,39.661
										c-1.201-0.085-2.419,0.615-3.336,2.104l0,0c-1.733,2.813-4.545,2.813-6.277,0l0,0c-1.733-2.813-4.544-2.813-6.277,0l0,0
										c-1.734,2.813-4.544,2.813-6.278,0l0,0c-1.732-2.813-4.543-2.813-6.277,0l0,0c-1.732,2.813-4.543,2.813-6.277,0l0,0
										c-1.734-2.813-4.543-2.813-6.278,0l0,0c-1.732,2.813-4.543,2.813-6.276,0l0,0C2.433,40.27,1.206,39.57,0,39.664" class="" style="stroke-dashoffset: 0px;"></path>
								</g>
								</svg>