<svg version="1.1" id="merit_i2" xmlns="http://www.w3.org/2000/svg" xmlns:xlink="http://www.w3.org/1999/xlink" x="0px" y="0px" width="38.416px" height="51.91px" viewBox="0 0 38.416 51.91" enable-background="new 0 0 38.416 51.91" xml:space="preserve">
								<g>
										<line fill="none" stroke="#000000" stroke-width="1.4" stroke-linecap="round" stroke-linejoin="round" stroke-miterlimit="10" x1="9.851" y1="51.261" x2="29.452" y2="51.261" class="" style="stroke-dashoffset: 0px;"></line>
									<g class="" style="stroke-dashoffset: 0px;">
										
											<path fill="none" stroke="#000000" stroke-width="1.4" stroke-linecap="round" stroke-linejoin="round" stroke-miterlimit="10" d="
											M23.157,21.01c0,2.204-1.788,3.991-3.993,3.991s-3.992-1.787-3.992-3.991c0-2.208,1.787-3.996,3.992-3.996
											S23.157,18.802,23.157,21.01z" class="" style="stroke-dashoffset: 0px;"></path>
										
											<path fill="none" stroke="#000000" stroke-width="1.4" stroke-linecap="round" stroke-linejoin="round" stroke-miterlimit="10" d="
											M15.805,18.814L19.118,0.99c0.088-0.457,0.747-0.444,0.81,0.018l2.44,17.568" class="" style="stroke-dashoffset: 0px;"></path>
										
											<path fill="none" stroke="#000000" stroke-width="1.4" stroke-linecap="round" stroke-linejoin="round" stroke-miterlimit="10" d="
											M17.856,24.878L1.434,31.021c-0.472,0.178-0.819-0.451-0.422-0.761l14.218-10.793" class="" style="stroke-dashoffset: 0px;"></path>
										
											<path fill="none" stroke="#000000" stroke-width="1.4" stroke-linecap="round" stroke-linejoin="round" stroke-miterlimit="10" d="
											M20.187,24.951l17.141,6.28c0.387,0.137,0.667-0.377,0.34-0.628L22.874,19.229" class="" style="stroke-dashoffset: 0px;"></path>
									</g>
									
										<line fill="none" stroke="#000000" stroke-width="1.4" stroke-linecap="round" stroke-linejoin="round" stroke-miterlimit="10" x1="15.842" y1="51.08" x2="18.064" y2="24.968" class="" style="stroke-dashoffset: 0px;"></line>
									
										<line fill="none" stroke="#000000" stroke-width="1.4" stroke-linecap="round" stroke-linejoin="round" stroke-miterlimit="10" x1="20.354" y1="24.854" x2="22.531" y2="50.863" class="" style="stroke-dashoffset: 0px;"></line>
								</g>
								</svg>