<svg version="1.1" id="logo_svg" xmlns="http://www.w3.org/2000/svg" xmlns:xlink="http://www.w3.org/1999/xlink" x="0px" y="0px" viewBox="0 0 201.8 109" style="enable-background:new 0 0 201.8 109;" xml:space="preserve">
<path class="color_1" fill="#fff" d="M75.5,70.4c0-25.6,17.9-38.4,38.2-38.4c8,0,14.6,2,19.4,4.5c2.2,1.3,2.9,2.4,0.9,6.9c-2,4.2-3,4.9-5.4,4.1
	c-5.1-1.9-9.1-3.2-14.7-3.2c-14.5,0-24.4,11.4-24.4,26.1c0,14.6,9.1,26.3,24.4,26.3c5.6,0,9.6-1.3,14.7-3.2c2.4-1,3.5-0.7,5.5,4
	c2,4.8,1.4,5.4-1,6.8c-4.7,2.6-11.2,4.7-19.4,4.7C89.3,109,75.5,92.5,75.5,70.4"></path>
<path class="color_1" fill="#fff" d="M187.9,75.3h-29v30.3c0,2.5-2.6,3-7,3c-4.2,0-7-0.5-7-2.9V32h13.9v30.8h29V32h13.9v73.6c0,2.5-2.6,3-7,3
	c-4.2,0-7-0.5-7-2.9V75.3z"></path>
<path class="color_1" fill="#fff" d="M5,11.7c0,0-5,4.3-5,9.4v20.8v25v10h18v-7.1V58.8v-16V31.3V0L5,11.7z"></path>
<path class="color_2" fill="#fff" d="M43.9,38l0.8-1C44.1,37.6,43.9,38,43.9,38"></path>
<path class="color_2" fill="#fff" d="M39.4,70.5c-0.4-0.4-0.5-0.9-0.5-1.4c0-0.5,0.2-1,0.5-1.4l32-35.7H57.7c-7.2,0-11.3,3.4-13,5.1l-0.8,1
	L21.6,63.9v12.9L48.3,109h24.1L39.4,70.5z"></path>
</svg>